<svg viewBox="0 0 50 50" xmlns="http://www.w3.org/2000/svg">
  <defs>
    <!-- Gradient definitions -->
    <linearGradient id="primaryGrad" x1="0%" y1="0%" x2="100%" y2="100%">
      <stop offset="0%" style="stop-color:#3B82F6;stop-opacity:1" />
      <stop offset="100%" style="stop-color:#1E40AF;stop-opacity:1" />
    </linearGradient>
    
    <linearGradient id="secondaryGrad" x1="0%" y1="0%" x2="100%" y2="100%">
      <stop offset="0%" style="stop-color:#06B6D4;stop-opacity:1" />
      <stop offset="100%" style="stop-color:#0891B2;stop-opacity:1" />
    </linearGradient>
    
    <linearGradient id="accentGrad" x1="0%" y1="0%" x2="100%" y2="100%">
      <stop offset="0%" style="stop-color:#8B5CF6;stop-opacity:1" />
      <stop offset="100%" style="stop-color:#7C3AED;stop-opacity:1" />
    </linearGradient>
  </defs>
  
  <!-- Logo Icon -->
  <g transform="translate(5, 5)">
    <!-- Base document layers -->
    <rect x="2" y="6" width="32" height="36" rx="4" fill="url(#primaryGrad)" opacity="0.8"/>
    <rect x="4" y="3" width="32" height="36" rx="4" fill="url(#secondaryGrad)" opacity="0.9"/>
    <rect x="6" y="0" width="32" height="36" rx="4" fill="url(#accentGrad)"/>
    
    <!-- AI Neural network pattern -->
    <g stroke="#FFFFFF" stroke-width="2" fill="none" opacity="0.8">
      <!-- Connection nodes -->
      <circle cx="14" cy="10" r="2" fill="#FFFFFF"/>
      <circle cx="24" cy="8" r="2" fill="#FFFFFF"/>
      <circle cx="32" cy="12" r="2" fill="#FFFFFF"/>
      <circle cx="18" cy="20" r="2" fill="#FFFFFF"/>
      <circle cx="28" cy="22" r="2" fill="#FFFFFF"/>
      <circle cx="22" cy="30" r="2" fill="#FFFFFF"/>
      
      <!-- Neural connections -->
      <path d="M14 10 L24 8 L32 12" stroke-width="1.5"/>
      <path d="M14 10 L18 20 L28 22" stroke-width="1.5"/>
      <path d="M24 8 L18 20 L22 30" stroke-width="1.5"/>
      <path d="M32 12 L28 22 L22 30" stroke-width="1.5"/>
    </g>
    
    <!-- Search/lens element -->
    <circle cx="30" cy="30" r="5" stroke="#FFFFFF" stroke-width="2.5" fill="none" opacity="0.9"/>
    <path d="M34 34 L38 38" stroke="#FFFFFF" stroke-width="2.5" stroke-linecap="round" opacity="0.9"/>
  </g>
</svg>